<svg xmlns="http://www.w3.org/2000/svg" width="500" height="437" viewBox="0 0 500 437">
  <path fill="#FFF" d="M202.716519,327.143928 L202.558299,327.437525 C197.10419,337.558271 197.777142,352.571108 204.86927,365.157549 C212.57606,378.834835 226.032191,387.02164 243.904395,387.02164 C261.506132,387.02164 274.146148,379.138389 281.553239,365.49916 C288.249745,353.168386 289.103904,337.348755 284.947182,326.976455 C282.176033,320.061588 272.914497,304.547585 257.162571,280.434444 L283.931231,227.82571 C306.936014,262.403349 322.288155,288.226004 329.987653,305.293676 C341.5369,330.895184 339.638507,363.206717 325.432995,389.364384 C309.469491,418.75917 280.222119,437 243.904395,437 C207.663133,437 177.767589,418.811342 161.367493,389.705995 C147.12768,364.434515 144.917814,333.759606 156.127364,308.738577 L306.902784,10 L495.014317,302.036622 C502.486268,313.636567 499.146831,329.101882 487.555476,336.57937 C475.964121,344.056858 460.510257,340.714947 453.038306,329.115002 L312.15897,110.404725 L202.716519,327.143928 Z M193.421365,174.210598 L156.511728,112.217894 L47.0959327,327.363015 C40.8435842,339.657056 25.8427086,344.537494 13.5905392,338.263778 C1.3383698,331.990063 -3.52544605,316.937922 2.72690243,304.643881 L153.081742,9 L220,121.394594 L193.421365,174.210598 Z"/>
</svg>
