<svg xmlns="http://www.w3.org/2000/svg" width="2185" height="437" viewBox="0 0 2185 437">
  <path fill="#FFF" d="M202.716519 327.143928L202.558299 327.437525C197.10419 337.558271 197.777142 352.571108 204.86927 365.157549 212.57606 378.834835 226.032191 387.02164 243.904395 387.02164 261.506132 387.02164 274.146148 379.138389 281.553239 365.49916 288.249745 353.168386 289.103904 337.348755 284.947182 326.976455 282.176033 320.061588 272.914497 304.547585 257.162571 280.434444L283.931231 227.82571C306.936014 262.403349 322.288155 288.226004 329.987653 305.293676 341.5369 330.895184 339.638507 363.206717 325.432995 389.364384 309.469491 418.75917 280.222119 437 243.904395 437 207.663133 437 177.767589 418.811342 161.367493 389.705995 147.12768 364.434515 144.917814 333.759606 156.127364 308.738577L306.902784 10 495.014317 302.036622C502.486268 313.636567 499.146831 329.101882 487.555476 336.57937 475.964121 344.056858 460.510257 340.714947 453.038306 329.115002L312.15897 110.404725 202.716519 327.143928zM193.421365 174.210598L156.511728 112.217894 47.0959327 327.363015C40.8435842 339.657056 25.8427086 344.537494 13.5905392 338.263778 1.3383698 331.990063-3.52544605 316.937922 2.72690243 304.643881L153.081742 9 220 121.394594 193.421365 174.210598zM688.831325 122C690.13253 122 691 122.865714 691 124.164286L691 220.835714C691 222.134286 690.13253 223 688.831325 223L668.445783 223C667.144578 223 666.277108 222.134286 666.277108 220.835714L666.277108 176.54 648.783133 221.124286C648.349398 222.278571 647.192771 223 646.036145 223L627.963855 223C626.807229 223 625.650602 222.278571 625.216867 221.124286L607.722892 176.54 607.722892 220.835714C607.722892 222.134286 606.855422 223 605.554217 223L585.168675 223C583.86747 223 583 222.134286 583 220.835714L583 124.164286C583 122.865714 583.86747 122 585.168675 122L607.86747 122C609.024096 122 610.036145 122.432857 610.46988 123.442857L636.927711 194.431429 663.53012 123.442857C663.963855 122.432857 664.975904 122 666.13253 122L688.831325 122zM779 225C750.479224 225 727 201.920943 727 173.072122 727 144.079057 750.479224 121 779 121 807.520776 121 831 144.079057 831 173.072122 831 201.920943 807.520776 225 779 225zM779 201C794.142857 201 806 188.763496 806 173.071979 806 157.236504 794.142857 145 779 145 763.857143 145 752 157.236504 752 173.071979 752 188.763496 763.857143 201 779 201zM943.833638 122C945.133455 122 946 122.86676 946 124.1669L946 183.684432C946 210.265077 929.391225 225 906.427788 225 883.608775 225 867 210.265077 867 183.684432L867 124.1669C867 122.86676 867.866545 122 869.166362 122L889.530165 122C890.829982 122 891.696527 122.86676 891.696527 124.1669L891.696527 183.684432C891.696527 194.374474 896.318099 200.586255 906.427788 200.586255 916.681901 200.586255 921.303473 194.374474 921.303473 183.684432L921.303473 124.1669C921.303473 122.86676 922.170018 122 923.469835 122L943.833638 122zM1067.83163 122C1069.13265 122 1070 122.865714 1070 124.164286L1070 220.835714C1070 222.134286 1069.13265 223 1067.83163 223L1045.13605 223C1043.97959 223 1043.11224 222.567143 1042.53401 221.557143L1009.71939 162.4 1009.71939 220.835714C1009.71939 222.134286 1008.85204 223 1007.55102 223L987.168367 223C985.867347 223 985 222.134286 985 220.835714L985 124.164286C985 122.865714 985.867347 122 987.168367 122L1009.86395 122C1011.02041 122 1011.88776 122.432857 1012.46599 123.442857L1045.28061 182.744286 1045.28061 124.164286C1045.28061 122.865714 1046.14796 122 1047.44898 122L1067.83163 122zM1174.84848 122C1176.13939 122 1177 122.865714 1177 124.164286L1177 141.478571C1177 142.777143 1176.13939 143.642857 1174.84848 143.642857L1153.76364 143.642857 1153.76364 220.835714C1153.76364 222.134286 1152.90303 223 1151.61212 223L1131.38788 223C1130.09697 223 1129.23636 222.134286 1129.23636 220.835714L1129.23636 143.642857 1108.15152 143.642857C1106.86061 143.642857 1106 142.777143 1106 141.478571L1106 124.164286C1106 122.865714 1106.86061 122 1108.15152 122L1174.84848 122zM1285.80205 220.547143C1286.38075 221.99 1285.65738 223 1284.06596 223L1262.79888 223C1261.64149 223 1260.77344 222.567143 1260.33942 221.268571L1255.56518 206.551429 1222.29015 206.551429 1217.66058 221.268571C1217.22656 222.567143 1216.35851 223 1215.20112 223L1193.93404 223C1192.34262 223 1191.61925 221.99 1192.19795 220.547143L1227.06439 123.731429C1227.49841 122.577143 1228.36646 122 1229.52385 122L1248.04213 122C1249.19952 122 1250.35691 122.577143 1250.79093 123.731429L1285.80205 220.547143zM1228 186L1248 186 1238 155 1228 186zM1319 124.164286C1319 122.865714 1319.87719 122 1321.19298 122L1341.80702 122C1343.12281 122 1344 122.865714 1344 124.164286L1344 220.835714C1344 222.134286 1343.12281 223 1341.80702 223L1321.19298 223C1319.87719 223 1319 222.134286 1319 220.835714L1319 124.164286zM1465.83163 122C1467.13265 122 1468 122.865714 1468 124.164286L1468 220.835714C1468 222.134286 1467.13265 223 1465.83163 223L1443.13605 223C1441.97959 223 1441.11224 222.567143 1440.53401 221.557143L1407.71939 162.4 1407.71939 220.835714C1407.71939 222.134286 1406.85204 223 1405.55102 223L1385.16837 223C1383.86735 223 1383 222.134286 1383 220.835714L1383 124.164286C1383 122.865714 1383.86735 122 1385.16837 122L1407.86395 122C1409.02041 122 1409.88776 122.432857 1410.46599 123.442857L1443.28061 182.744286 1443.28061 124.164286C1443.28061 122.865714 1444.14796 122 1445.44898 122L1465.83163 122zM1530.50815 151.291262C1530.50815 165.571429 1576 158.359223 1576 193.843273 1576 215.047157 1556.99707 225 1540.00961 225 1524.74968 225 1511.2173 216.633842 1504.59506 208.988904 1503.87526 208.12344 1503.73129 206.969487 1504.59506 205.959778L1515.6801 193.410541C1516.39991 192.400832 1517.69557 192.112344 1518.84726 193.122053 1526.62118 199.036061 1532.81153 201.776699 1540.72942 201.776699 1546.34392 201.776699 1551.95842 199.180305 1551.95842 193.554785 1551.95842 179.563107 1506.46656 184.034674 1506.46656 150.714286 1506.46656 131.52982 1522.73422 121 1539.2898 121 1552.67823 121 1562.61157 126.337032 1571.24927 134.270458 1572.257 135.280166 1572.257 136.145631 1571.53719 137.299584L1561.028 150.425798C1560.16423 151.57975 1559.1565 151.723994 1558.0048 151.002774 1550.66276 146.242718 1546.34392 144.223301 1540.15357 144.223301 1533.38738 144.223301 1530.50815 147.829404 1530.50815 151.291262zM1684.80836 193.410541L1697.34701 206.969487C1698.06762 207.979196 1698.35586 208.84466 1697.34701 209.998613 1688.55554 219.37448 1675.72865 225 1661.46054 225 1632.49194 225 1609 202.065187 1609 173.072122 1609 143.790569 1632.49194 121 1661.46054 121 1675.72865 121 1688.55554 126.481276 1697.34701 136.001387 1698.35586 137.011096 1698.06762 138.020804 1697.34701 139.030513L1684.80836 152.589459C1684.08775 153.599168 1682.79065 153.599168 1681.78179 152.733703 1676.44926 148.117892 1669.67551 145.088766 1661.17229 145.088766 1646.03945 145.088766 1634.36554 157.061026 1634.36554 173.072122 1634.36554 188.79473 1646.03945 200.76699 1661.17229 200.76699 1669.67551 200.76699 1676.44926 197.882108 1681.78179 193.122053 1682.79065 192.256588 1684.08775 192.400832 1684.80836 193.410541zM1819.80205 220.547143C1820.38075 221.99 1819.65738 223 1818.06596 223L1796.79888 223C1795.64149 223 1794.77344 222.567143 1794.33942 221.268571L1789.56518 206.551429 1756.29015 206.551429 1751.66058 221.268571C1751.22656 222.567143 1750.35851 223 1749.20112 223L1727.93404 223C1726.34262 223 1725.61925 221.99 1726.19795 220.547143L1761.06439 123.731429C1761.49841 122.577143 1762.36646 122 1763.52385 122L1782.04213 122C1783.19952 122 1784.35691 122.577143 1784.79093 123.731429L1819.80205 220.547143zM1763 186L1783 186 1773 155 1763 186zM1886.68675 122C1911.40964 122 1925 135.851429 1925 155.907143 1925 175.962857 1911.40964 189.814286 1886.68675 189.814286L1877.72289 189.814286 1877.72289 220.835714C1877.72289 222.134286 1876.85542 223 1875.55422 223L1855.16867 223C1853.86747 223 1853 222.134286 1853 220.835714L1853 124.164286C1853 122.865714 1853.86747 122 1855.16867 122L1886.68675 122zM1885.63415 169C1892.65854 169 1901 166.352941 1901 156.5 1901 146.5 1892.65854 144 1885.63415 144L1877 144 1877 169 1885.63415 169zM2016.85194 201.357143C2018.14078 201.357143 2019 202.222857 2019 203.521429L2019 220.835714C2019 222.134286 2018.14078 223 2016.85194 223L1962.14806 223C1960.85922 223 1960 222.134286 1960 220.835714L1960 124.164286C1960 122.865714 1960.85922 122 1962.14806 122L2016.70874 122C2017.99757 122 2018.8568 122.865714 2018.8568 124.164286L2018.8568 141.478571C2018.8568 142.777143 2017.99757 143.642857 2016.70874 143.642857L1984.48786 143.642857 1984.48786 160.957143 2014.70388 160.957143C2015.99272 160.957143 2016.85194 161.822857 2016.85194 163.121429L2016.85194 180.435714C2016.85194 181.734286 2015.99272 182.6 2014.70388 182.6L1984.48786 182.6 1984.48786 201.357143 2016.85194 201.357143zM2081.50815 151.291262C2081.50815 165.571429 2127 158.359223 2127 193.843273 2127 215.047157 2107.99707 225 2091.00961 225 2075.74968 225 2062.2173 216.633842 2055.59506 208.988904 2054.87526 208.12344 2054.73129 206.969487 2055.59506 205.959778L2066.6801 193.410541C2067.39991 192.400832 2068.69557 192.112344 2069.84726 193.122053 2077.62118 199.036061 2083.81153 201.776699 2091.72942 201.776699 2097.34392 201.776699 2102.95842 199.180305 2102.95842 193.554785 2102.95842 179.563107 2057.46656 184.034674 2057.46656 150.714286 2057.46656 131.52982 2073.73422 121 2090.2898 121 2103.67823 121 2113.61157 126.337032 2122.24927 134.270458 2123.257 135.280166 2123.257 136.145631 2122.53719 137.299584L2112.028 150.425798C2111.16423 151.57975 2110.1565 151.723994 2109.0048 151.002774 2101.66276 146.242718 2097.34392 144.223301 2091.15357 144.223301 2084.38738 144.223301 2081.50815 147.829404 2081.50815 151.291262zM581 285.835714C581 285.334286 581.322581 285 581.806452 285L585.193548 285C585.677419 285 586 285.334286 586 285.835714L586 323.164286C586 323.665714 585.677419 324 585.193548 324L581.806452 324C581.322581 324 581 323.665714 581 323.164286L581 285.835714zM655.817253 322.997143C656.217078 323.61 655.931489 324 655.246075 324L651.304946 324C650.848003 324 650.505296 323.832857 650.276825 323.442857L640.852385 309.514286 635.311957 309.514286 635.311957 323.164286C635.311957 323.665714 634.96925 324 634.45519 324L630.856767 324C630.342707 324 630 323.665714 630 323.164286L630 285.835714C630 285.334286 630.342707 285 630.856767 285L641.880506 285C650.733767 285 655.531664 290.181429 655.531664 297.257143 655.531664 303.051429 652.275948 307.62 646.22146 309.012857L655.817253 322.997143zM635 290L635 305 641.306818 305C646.022727 305 650 303 650 297.5 650 292 646.022727 290 641.306818 290L635 290zM723.817253 322.997143C724.217078 323.61 723.931489 324 723.246075 324L719.304946 324C718.848003 324 718.505296 323.832857 718.276825 323.442857L708.852385 309.514286 703.311957 309.514286 703.311957 323.164286C703.311957 323.665714 702.96925 324 702.45519 324L698.856767 324C698.342707 324 698 323.665714 698 323.164286L698 285.835714C698 285.334286 698.342707 285 698.856767 285L709.880506 285C718.733767 285 723.531664 290.181429 723.531664 297.257143 723.531664 303.051429 720.275948 307.62 714.22146 309.012857L723.817253 322.997143zM703 290L703 305 709.306818 305C714.022727 305 718 303 718 297.5 718 292 714.022727 290 709.306818 290L703 290zM766 285.835714C766 285.334286 766.322581 285 766.806452 285L770.193548 285C770.677419 285 771 285.334286 771 285.835714L771 323.164286C771 323.665714 770.677419 324 770.193548 324L766.806452 324C766.322581 324 766 323.665714 766 323.164286L766 285.835714zM850.155556 303.807212C850.662222 303.807212 851 304.140083 851 304.63939L851 306.803051C851 317.066574 844.188148 325 832.985185 325 821.66963 325 813 316.067961 813 304.861304 813 293.87656 821.725926 285 832.928889 285 838.220741 285 842.780741 287.21914 846.327407 290.325936 846.721481 290.714286 846.777778 291.102635 846.383704 291.490985L844.131852 293.821082C843.737778 294.209431 843.343704 294.153953 842.94963 293.821082 840.191111 291.546463 836.925926 290.048544 832.928889 290.048544 824.878519 290.048544 818.348148 296.48405 818.348148 304.861304 818.348148 313.460472 824.70963 319.951456 832.985185 319.951456 840.528889 319.951456 845.708148 315.124827 845.933333 308.467406L833.548148 308.467406C833.041481 308.467406 832.703704 308.134535 832.703704 307.635229L832.703704 304.63939C832.703704 304.140083 833.041481 303.807212 833.548148 303.807212L850.155556 303.807212zM921.923696 323.052857C922.146769 323.61 921.867928 324 921.254479 324L917.685323 324C917.239179 324 916.90457 323.832857 916.737266 323.331429L913.893094 315.252857 897.106906 315.252857 894.262734 323.331429C894.09543 323.832857 893.760821 324 893.314677 324L889.745521 324C889.132072 324 888.853231 323.61 889.076304 323.052857L902.739481 285.668571C902.906785 285.222857 903.297161 285 903.743306 285L907.256694 285C907.702839 285 908.093215 285.222857 908.260519 285.668571L921.923696 323.052857zM898 311L912 311 905.028807 292 898 311zM979.141876 285C979.656751 285 980 285.334286 980 285.835714L980 288.9C980 289.401429 979.656751 289.735714 979.141876 289.735714L970.160183 289.735714 970.160183 323.164286C970.160183 323.665714 969.816934 324 969.302059 324L965.697941 324C965.183066 324 964.839817 323.665714 964.839817 323.164286L964.839817 289.735714 955.858124 289.735714C955.343249 289.735714 955 289.401429 955 288.9L955 285.835714C955 285.334286 955.343249 285 955.858124 285L979.141876 285zM1023 285.835714C1023 285.334286 1023.32258 285 1023.80645 285L1027.19355 285C1027.67742 285 1028 285.334286 1028 285.835714L1028 323.164286C1028 323.665714 1027.67742 324 1027.19355 324L1023.80645 324C1023.32258 324 1023 323.665714 1023 323.164286L1023 285.835714zM1090 325C1078.93855 325 1070 316.12344 1070 305.027739 1070 293.87656 1078.93855 285 1090 285 1101.06145 285 1110 293.87656 1110 305.027739 1110 316.12344 1101.06145 325 1090 325zM1090 320C1098.40226 320 1105 313.382353 1105 305.055147 1105 296.617647 1098.40226 290 1090 290 1081.59774 290 1075 296.617647 1075 305.055147 1075 313.382353 1081.59774 320 1090 320zM1182.14773 285C1182.65909 285 1183 285.334286 1183 285.835714L1183 323.164286C1183 323.61 1182.71591 323.944286 1182.26136 324L1177.60227 324C1177.14773 324 1176.80682 323.832857 1176.57955 323.442857L1158.28409 292.632857 1158.28409 323.164286C1158.28409 323.665714 1157.94318 324 1157.43182 324L1153.85227 324C1153.34091 324 1153 323.665714 1153 323.164286L1153 285.835714C1153 285.39 1153.28409 285.055714 1153.73864 285L1158.34091 285C1158.79545 285 1159.13636 285.167143 1159.36364 285.557143L1177.71591 316.367143 1177.71591 285.835714C1177.71591 285.334286 1178.05682 285 1178.56818 285L1182.14773 285zM1308.75296 321.429568C1309.0912 321.820084 1309.0912 322.266388 1308.69659 322.656904L1306.83626 324.497908C1306.44165 324.888424 1305.99066 324.888424 1305.65242 324.497908L1301.25529 319.867503C1297.87289 322.824268 1293.87038 325 1288.85314 325 1282.03196 325 1276 321.262204 1276 314.065551 1276 308.48675 1280.17163 305.13947 1284.51239 302.35007 1281.97558 299.616457 1279.77702 296.603905 1279.77702 293.423989 1279.77702 289.016736 1283.38492 285 1289.02226 285 1294.49048 285 1298.493 289.016736 1298.493 293.423989 1298.493 297.831241 1295.16696 300.732218 1291.44632 303.298466L1301.19892 313.563459C1302.04452 312.670851 1302.83375 311.778243 1303.5666 310.885635 1303.90484 310.495119 1304.35583 310.495119 1304.75045 310.829847L1306.77989 312.782427C1307.1745 313.117155 1307.23088 313.563459 1306.89264 313.953975 1306.10341 314.902371 1305.25781 315.906555 1304.35583 316.854951L1308.75296 321.429568zM1285 293.809524C1285 295.873016 1286.71166 297.989418 1288.64417 300 1291.62577 298.095238 1294 296.296296 1294 293.809524 1294 291.640212 1291.95706 290 1289.41718 290 1286.93252 290 1285 291.640212 1285 293.809524zM1288.87667 320C1292.39 320 1295.39333 318.498084 1298 316.40613L1287.63 306C1284.06 308.306513 1281 310.613027 1281 313.885057 1281 317.639847 1284.57 320 1288.87667 320zM1421.16898 319.264286C1421.66759 319.264286 1422 319.598571 1422 320.1L1422 323.164286C1422 323.665714 1421.66759 324 1421.16898 324L1402.83102 324C1402.33241 324 1402 323.665714 1402 323.164286L1402 285.835714C1402 285.334286 1402.33241 285 1402.83102 285L1406.32133 285C1406.81994 285 1407.15235 285.334286 1407.15235 285.835714L1407.15235 319.264286 1421.16898 319.264286zM1495.9237 323.052857C1496.14677 323.61 1495.86793 324 1495.25448 324L1491.68532 324C1491.23918 324 1490.90457 323.832857 1490.73727 323.331429L1487.89309 315.252857 1471.10691 315.252857 1468.26273 323.331429C1468.09543 323.832857 1467.76082 324 1467.31468 324L1463.74552 324C1463.13207 324 1462.85323 323.61 1463.0763 323.052857L1476.73948 285.668571C1476.90678 285.222857 1477.29716 285 1477.74331 285L1481.25669 285C1481.70284 285 1482.09322 285.222857 1482.26052 285.668571L1495.9237 323.052857zM1472 311L1486 311 1479.02881 292 1472 311zM1566.14773 285C1566.65909 285 1567 285.334286 1567 285.835714L1567 323.164286C1567 323.61 1566.71591 323.944286 1566.26136 324L1561.60227 324C1561.14773 324 1560.80682 323.832857 1560.57955 323.442857L1542.28409 292.632857 1542.28409 323.164286C1542.28409 323.665714 1541.94318 324 1541.43182 324L1537.85227 324C1537.34091 324 1537 323.665714 1537 323.164286L1537 285.835714C1537 285.39 1537.28409 285.055714 1537.73864 285L1542.34091 285C1542.79545 285 1543.13636 285.167143 1543.36364 285.557143L1561.71591 316.367143 1561.71591 285.835714C1561.71591 285.334286 1562.05682 285 1562.56818 285L1566.14773 285zM1621.27687 285C1634.99818 285 1642 293.524286 1642 304.5 1642 315.475714 1634.99818 324 1621.27687 324L1611.84699 324C1611.3388 324 1611 323.665714 1611 323.164286L1611 285.835714C1611 285.334286 1611.3388 285 1611.84699 285L1621.27687 285zM1620.93075 319C1631.01385 319 1636 313.528302 1636 304.5 1636 295.471698 1631.01385 290 1620.93075 290L1616 290 1616 319 1620.93075 319zM1687.96951 295.208044C1687.96951 303.751734 1708 300.866852 1708 314.070735 1708 320.450763 1701.92843 325 1694.83548 325 1689.27461 325 1684.73512 322.281553 1682.18166 319.0638 1681.89794 318.619972 1681.95468 318.287101 1682.29515 317.95423L1684.39466 315.846047C1684.79186 315.513176 1685.18907 315.513176 1685.64302 315.901526 1688.02625 318.287101 1690.86343 320.17337 1694.83548 320.17337 1699.60195 320.17337 1702.77959 317.399445 1702.77959 313.848821 1702.77959 305.138696 1682.86258 307.690707 1682.86258 295.152566 1682.86258 289.160888 1688.02625 285 1694.55176 285 1698.97777 285 1703.17679 286.997226 1706.01397 290.214979 1706.41118 290.603329 1706.41118 290.9362 1706.01397 291.380028L1704.14143 293.377254C1703.74423 293.821082 1703.34702 293.87656 1702.94982 293.488211 1700.33961 291.102635 1697.89964 289.771151 1694.60851 289.771151 1690.80669 289.771151 1687.96951 291.823856 1687.96951 295.208044zM1780.45322 316.178918L1782.72831 318.453537C1783.12646 318.841886 1783.06958 319.285714 1782.67144 319.618585 1779.08816 322.78086 1774.48109 325 1769.13461 325 1757.816 325 1749 316.12344 1749 305.027739 1749 293.87656 1757.816 285 1769.13461 285 1774.48109 285 1779.08816 287.21914 1782.67144 290.325936 1783.06958 290.714286 1783.12646 291.102635 1782.72831 291.490985L1780.45322 293.821082C1780.05507 294.209431 1779.65693 294.153953 1779.25879 293.821082 1776.4718 291.546463 1773.17291 290.048544 1769.13461 290.048544 1761.00114 290.048544 1754.40336 296.48405 1754.40336 305.027739 1754.40336 313.51595 1761.00114 319.951456 1769.13461 319.951456 1773.17291 319.951456 1776.4718 318.453537 1779.25879 316.178918 1779.65693 315.846047 1780.05507 315.790569 1780.45322 316.178918zM1854.9237 323.052857C1855.14677 323.61 1854.86793 324 1854.25448 324L1850.68532 324C1850.23918 324 1849.90457 323.832857 1849.73727 323.331429L1846.89309 315.252857 1830.10691 315.252857 1827.26273 323.331429C1827.09543 323.832857 1826.76082 324 1826.31468 324L1822.74552 324C1822.13207 324 1821.85323 323.61 1822.0763 323.052857L1835.73948 285.668571C1835.90678 285.222857 1836.29716 285 1836.74331 285L1840.25669 285C1840.70284 285 1841.09322 285.222857 1841.26052 285.668571L1854.9237 323.052857zM1831 311L1845 311 1838.02881 292 1831 311zM1907.63311 285C1916.30201 285 1921 290.181429 1921 297.257143 1921 304.277143 1916.30201 309.514286 1907.63311 309.514286L1901.20134 309.514286 1901.20134 323.164286C1901.20134 323.665714 1900.86577 324 1900.36242 324L1896.83893 324C1896.33557 324 1896 323.665714 1896 323.164286L1896 285.835714C1896 285.334286 1896.33557 285 1896.83893 285L1907.63311 285zM1907.30682 305C1912.02273 305 1916 303 1916 297.5 1916 292 1912.02273 290 1907.30682 290L1901 290 1901 305 1907.30682 305zM1963 285.835714C1963 285.334286 1963.32258 285 1963.80645 285L1967.19355 285C1967.67742 285 1968 285.334286 1968 285.835714L1968 323.164286C1968 323.665714 1967.67742 324 1967.19355 324L1963.80645 324C1963.32258 324 1963 323.665714 1963 323.164286L1963 285.835714zM2041.14773 285C2041.65909 285 2042 285.334286 2042 285.835714L2042 323.164286C2042 323.61 2041.71591 323.944286 2041.26136 324L2036.60227 324C2036.14773 324 2035.80682 323.832857 2035.57955 323.442857L2017.28409 292.632857 2017.28409 323.164286C2017.28409 323.665714 2016.94318 324 2016.43182 324L2012.85227 324C2012.34091 324 2012 323.665714 2012 323.164286L2012 285.835714C2012 285.39 2012.28409 285.055714 2012.73864 285L2017.34091 285C2017.79545 285 2018.13636 285.167143 2018.36364 285.557143L2036.71591 316.367143 2036.71591 285.835714C2036.71591 285.334286 2037.05682 285 2037.56818 285L2041.14773 285zM2121.15556 303.807212C2121.66222 303.807212 2122 304.140083 2122 304.63939L2122 306.803051C2122 317.066574 2115.18815 325 2103.98519 325 2092.66963 325 2084 316.067961 2084 304.861304 2084 293.87656 2092.72593 285 2103.92889 285 2109.22074 285 2113.78074 287.21914 2117.32741 290.325936 2117.72148 290.714286 2117.77778 291.102635 2117.3837 291.490985L2115.13185 293.821082C2114.73778 294.209431 2114.3437 294.153953 2113.94963 293.821082 2111.19111 291.546463 2107.92593 290.048544 2103.92889 290.048544 2095.87852 290.048544 2089.34815 296.48405 2089.34815 304.861304 2089.34815 313.460472 2095.70963 319.951456 2103.98519 319.951456 2111.52889 319.951456 2116.70815 315.124827 2116.93333 308.467406L2104.54815 308.467406C2104.04148 308.467406 2103.7037 308.134535 2103.7037 307.635229L2103.7037 304.63939C2103.7037 304.140083 2104.04148 303.807212 2104.54815 303.807212L2121.15556 303.807212z"/>
</svg>
